GRF_marche0007
version=1
nRows=12
nColumns=19
inDegrees=yes
endheader
time	ground_force_vx	ground_force_vy	ground_force_vz	ground_force_px	ground_force_py	ground_force_pz	1_ground_force_vx	1_ground_force_vy	1_ground_force_vz	1_ground_force_px	1_ground_force_py	1_ground_force_pz	ground_torque_x	ground_torque_y	ground_torque_z	1_ground_torque_x	1_ground_torque_y	1_ground_torque_z
      3.10000000	      0.21962607	     -1.02835849	      0.20283308	      0.20513900	      0.00754654	      0.26160298	      0.14588745	     -0.03711557	      0.09571010	      0.35778184	      0.01181833	      1.18003261	      0.21902352	      0.25712003	     -0.26020269	     -0.05397158	      0.16307008	     -0.07988740
      3.11000000	     -0.26392924	     -1.99643386	      0.15716441	      0.38432169	      0.00785084	      0.26983325	      0.14678923	     -0.06020356	      0.08495362	      0.47640429	      0.01189453	      1.03033121	      0.57023765	      0.09757552	     -0.78324352	     -0.04534736	      0.15522286	     -0.09315598
      3.12000000	     -0.62924558	     -2.63353017	      0.10754819	      0.43175464	      0.00792207	      0.28384177	      0.14704349	     -0.08353807	      0.07142591	      0.65551237	      0.01211822	      0.87495928	      0.79905679	     -0.01285459	     -1.14071921	     -0.03380191	      0.14305683	     -0.10888616
      3.13000000	     -0.87023754	     -2.95968072	      0.05902836	      0.45402926	      0.00795718	      0.28831211	      0.14771297	     -0.10342318	      0.05580859	      0.85703432	      0.01241573	      0.72996879	      0.91342542	     -0.07485148	     -1.34090268	     -0.02070071	      0.12783431	     -0.12707769
      3.14000000	     -0.99271849	     -3.01749938	      0.01551291	      0.46751893	      0.00798210	      0.28637447	      0.14970763	     -0.11595812	      0.03887541	      1.08116125	      0.01281402	      0.61256048	      0.92952513	     -0.09315552	     -1.40383399	     -0.00756626	      0.11093911	     -0.14782702
      3.15000000	     -1.01131601	     -2.86326253	     -0.02028087	      0.47715950	      0.00800460	      0.27904459	      0.15367971	     -0.11752699	      0.02148907	      1.37133509	      0.01341786	      0.51792528	      0.86846937	     -0.07531953	     -1.35674090	      0.00405649	      0.09379484	     -0.17121553
      3.16000000	     -0.94627159	     -2.55878019	     -0.04678269	      0.48503468	      0.00802864	      0.26586117	      0.15993738	     -0.10527599	      0.00459912	      1.84269074	      0.01447325	      0.41267926	      0.75328370	     -0.03046402	     -1.22987207	      0.01273606	      0.07778566	     -0.19719088
      3.17000000	     -0.82043708	     -2.16463131	     -0.06345420	      0.49226388	      0.00805757	      0.24505925	      0.16838600	     -0.07750522	     -0.01077248	      2.87114642	      0.01680563	      0.20230588	      0.60639082	      0.03185672	     -1.05304713	      0.01728083	      0.06417458	     -0.22547267
      3.18000000	     -0.65670341	     -1.73507260	     -0.07062679	      0.49959980	      0.00809543	      0.21315568	      0.17850917	     -0.03392182	     -0.02357122	      7.24190214	      0.02683901	     -0.61291421	      0.44772597	      0.10259624	     -0.85308777	      0.01684562	      0.05401738	     -0.25550282
      3.19000000	     -0.47601054	     -1.31469146	     -0.06931210	      0.50770132	      0.00814822	      0.16398732	      0.18940115	      0.02426107	     -0.03278170	    -11.48575266	     -0.01719913	      2.19865629	      0.29351953	      0.17391567	     -0.65216276	      0.01101256	      0.04807667	     -0.28644008
      3.20000000	     -0.29599733	     -0.93669265	     -0.06100100	      0.51740927	      0.00822507	      0.08780716	      0.19985657	      0.09436235	     -0.03752659	     -3.22863440	      0.00179963	      0.68715813	      0.15570832	      0.23962599	     -0.46697636	     -0.00015507	      0.04674722	     -0.31717995
      3.21000000	     -0.13026933	     -0.62259395	     -0.04746441	      0.53025138	      0.00833381	     -0.02194289	      0.20851219	      0.17238646	     -0.03717598	     -1.95125695	      0.00463616	      0.38659645	      0.04188421	      0.29538571	     -0.30866313	     -0.01608880	      0.05000894	     -0.34638127
